<svg xmlns="http://www.w3.org/2000/svg" width="600" height="250"><defs><linearGradient id="a" x1="0" x2="600" y1="0" y2="250"><stop stop-color="#0B0F15"/><stop offset=".58" stop-color="#121522"/><stop offset="1" stop-color="#171329"/></linearGradient><linearGradient id="d" x1="0" x2="150" y1="0" y2="0"><stop stop-color="#fff" stop-opacity="0"/><stop offset=".55" stop-color="#fff" stop-opacity=".05"/><stop offset=".78" stop-color="#fff" stop-opacity=".18"/><stop offset="1" stop-color="#fff" stop-opacity="0"/></linearGradient><radialGradient id="b" cx="0" cy="0" r="1" gradientTransform="matrix(-176.11769 123.31893 -86.03647 -122.8728 520 30)" gradientUnits="userSpaceOnUse"><stop stop-color="#8B5CF6" stop-opacity=".34"/><stop offset="1" stop-color="#8B5CF6" stop-opacity="0"/></radialGradient><clipPath id="c"><rect width="598" height="248" x="1" y="1" rx="28"/></clipPath></defs><g transform="matrix(.99 0 0 1 6 0)"><rect width="598" height="248" x="1" y="1" fill="url(#a)" stroke="#30363D" rx="28"/><rect width="598" height="248" x="1" y="1" fill="url(#b)" rx="28"/><g clip-path="url(#c)" opacity=".55"><path fill="url(#d)" d="M-180 0h150v250h-150z"><animate attributeName="x" dur="9.2s" repeatCount="indefinite" values="-180;720"/></path></g><path stroke="#30363D" d="M32 22h180"/><circle cx="558" cy="34" r="5" fill="#A78BFA"><animate attributeName="opacity" dur="2.5s" repeatCount="indefinite" values=".4;1;.4"/></circle><g font-family="Segoe UI,Inter,Arial,sans-serif"><text x="32" y="50" fill="#8B949E" font-size="11.5" font-weight="700" letter-spacing="2.3">AI · DEVELOPER TOOLING</text><text x="32" y="91" fill="#F0F6FC" font-size="27" font-weight="720">Coding Tools MCP</text><text x="32" y="128" fill="#C9D1D9" font-size="14.2">Persistent local development workspace exposed to AI agents through MCP.</text><text x="32" y="153" fill="#8B949E" font-size="13.4">Files, commands, Git state, remote access and cross-session context.</text><g fill="#161B22" stroke="#30363D"><rect width="64" height="28" x="32" y="194" rx="14"/><rect width="64" height="28" x="104" y="194" rx="14"/><rect width="64" height="28" x="176" y="194" rx="14"/><rect width="64" height="28" x="248" y="194" rx="14"/></g><g fill="#AEB7C4" font-size="11.5" font-weight="600" text-anchor="middle"><text x="64" y="212">Rust</text><text x="136" y="212">Tauri</text><text x="208" y="212">MCP</text><text x="280" y="212">Git</text></g><text x="566" y="212" fill="#A78BFA" font-size="12.5" font-weight="700" text-anchor="end">OPEN ↗</text></g></g></svg>