<svg width="1200" height="360" viewBox="0 0 1200 360" fill="none" xmlns="http://www.w3.org/2000/svg">
  <defs>
    <linearGradient id="bg" x1="0" y1="0" x2="1200" y2="360" gradientUnits="userSpaceOnUse">
      <stop stop-color="#FBFCFE"/>
      <stop offset="0.52" stop-color="#F7FAFD"/>
      <stop offset="1" stop-color="#EEF6FF"/>
    </linearGradient>
    <radialGradient id="blueGlow" cx="0" cy="0" r="1" gradientUnits="userSpaceOnUse" gradientTransform="translate(995 75) rotate(145) scale(430 275)">
      <stop stop-color="#60A5FA" stop-opacity="0.20"/>
      <stop offset="1" stop-color="#60A5FA" stop-opacity="0"/>
    </radialGradient>
    <radialGradient id="cyanGlow" cx="0" cy="0" r="1" gradientUnits="userSpaceOnUse" gradientTransform="translate(790 295) rotate(-18) scale(330 170)">
      <stop stop-color="#22D3EE" stop-opacity="0.10"/>
      <stop offset="1" stop-color="#22D3EE" stop-opacity="0"/>
    </radialGradient>
    <linearGradient id="accent" x1="82" y1="0" x2="590" y2="0" gradientUnits="userSpaceOnUse">
      <stop stop-color="#60A5FA"/>
      <stop offset="0.55" stop-color="#22C1C3"/>
      <stop offset="1" stop-color="#60A5FA" stop-opacity="0.20"/>
    </linearGradient>
    <linearGradient id="trail" x1="0" y1="0" x2="120" y2="0" gradientUnits="userSpaceOnUse">
      <stop stop-color="#60A5FA" stop-opacity="0"/>
      <stop offset="0.55" stop-color="#22C1C3" stop-opacity="0.30"/>
      <stop offset="0.82" stop-color="#FFFFFF" stop-opacity="1"/>
      <stop offset="1" stop-color="#FFFFFF" stop-opacity="0"/>
    </linearGradient>
    <filter id="glow" x="-100%" y="-100%" width="300%" height="300%"><feGaussianBlur stdDeviation="4"/></filter>
    <filter id="soft" x="-50%" y="-50%" width="200%" height="200%"><feGaussianBlur stdDeviation="18"/></filter>
    <clipPath id="lineClip"><rect x="82" y="195" width="510" height="16" rx="8"/></clipPath>
    <clipPath id="cardClip"><rect x="1" y="1" width="1198" height="358" rx="24"/></clipPath>
  </defs>

  <rect x="1" y="1" width="1198" height="358" rx="24" fill="url(#bg)" stroke="#D0D7DE"/>
  <rect x="1" y="1" width="1198" height="358" rx="24" fill="url(#blueGlow)"/>
  <rect x="1" y="1" width="1198" height="358" rx="24" fill="url(#cyanGlow)"/>

  <g clip-path="url(#cardClip)">
    <g opacity="0.18" stroke="#8C959F" stroke-width="1">
      <path d="M0 60H1200M0 120H1200M0 180H1200M0 240H1200M0 300H1200"/>
      <path d="M120 0V360M240 0V360M360 0V360M480 0V360M600 0V360M720 0V360M840 0V360M960 0V360M1080 0V360"/>
    </g>
    <rect x="-220" y="0" width="190" height="360" fill="#FFFFFF" opacity="0.22">
      <animate attributeName="x" values="-220;1320" dur="10s" repeatCount="indefinite"/>
    </rect>
  </g>

  <g opacity="0.88">
    <path d="M755 275L815 225L875 243L935 160L995 190L1060 108L1122 132" stroke="#C7D2E0" stroke-width="1.5"/>
    <path d="M755 275L815 225L875 243L935 160L995 190L1060 108L1122 132" stroke="#4F9CF9" stroke-width="1.5" stroke-dasharray="5 10">
      <animate attributeName="stroke-dashoffset" values="0;-60" dur="3s" repeatCount="indefinite"/>
    </path>
    <g>
      <circle cx="755" cy="275" r="5" fill="#22C1C3"><animate attributeName="r" values="4;6;4" dur="2.4s" repeatCount="indefinite"/></circle>
      <circle cx="815" cy="225" r="4" fill="#60A5FA"><animate attributeName="opacity" values=".45;1;.45" dur="2.1s" repeatCount="indefinite"/></circle>
      <circle cx="875" cy="243" r="3" fill="#94A3B8"/>
      <circle cx="935" cy="160" r="4" fill="#60A5FA"><animate attributeName="r" values="3;6;3" dur="3s" repeatCount="indefinite"/></circle>
      <circle cx="995" cy="190" r="3" fill="#94A3B8"/>
      <circle cx="1060" cy="108" r="5" fill="#22C1C3"><animate attributeName="opacity" values=".35;1;.35" dur="1.9s" repeatCount="indefinite"/></circle>
      <circle cx="1122" cy="132" r="3" fill="#60A5FA"/>
    </g>
  </g>
  <circle cx="1060" cy="108" r="30" fill="#22C1C3" opacity="0.10" filter="url(#soft)"><animate attributeName="r" values="22;40;22" dur="3.2s" repeatCount="indefinite"/></circle>

  <g font-family="Segoe UI, Inter, Arial, sans-serif">
    <text x="82" y="126" fill="#1F2328" font-size="58" font-weight="760" letter-spacing="1">ZGMFX01A</text>
    <text x="86" y="166" fill="#57606A" font-size="17" font-weight="600" letter-spacing="3">BACKEND DEVELOPER  ·  INDEPENDENT BUILDER</text>

    <rect x="82" y="200" width="510" height="3" rx="1.5" fill="url(#accent)" opacity="0.95"/>
    <g clip-path="url(#lineClip)">
      <rect x="-40" y="196" width="120" height="10" rx="5" fill="url(#trail)"><animate attributeName="x" values="-40;620" dur="1.8s" repeatCount="indefinite"/></rect>
      <circle cx="82" cy="201.5" r="5.5" fill="#FFFFFF" stroke="#22C1C3" stroke-width="2"><animate attributeName="cx" values="82;592" dur="1.8s" repeatCount="indefinite"/><animate attributeName="r" values="4;7;4" dur="0.9s" repeatCount="indefinite"/></circle>
      <circle cx="82" cy="201.5" r="13" fill="#22C1C3" opacity="0.16"><animate attributeName="cx" values="82;592" dur="1.8s" repeatCount="indefinite"/></circle>
    </g>

    <text x="82" y="244" fill="#424A53" font-size="18">Source-first software</text>
    <text x="268" y="244" fill="#AFB8C1" font-size="18">/</text>
    <text x="287" y="244" fill="#424A53" font-size="18">Local AI tooling</text>
    <text x="437" y="244" fill="#AFB8C1" font-size="18">/</text>
    <text x="456" y="244" fill="#424A53" font-size="18">Practical systems</text>

    <rect x="82" y="282" width="158" height="34" rx="17" fill="#FFFFFF" fill-opacity="0.86" stroke="#B6D7FF"/>
    <circle cx="102" cy="299" r="4" fill="#31A354"><animate attributeName="opacity" values=".35;1;.35" dur="1.6s" repeatCount="indefinite"/></circle>
    <text x="116" y="304" fill="#57606A" font-size="12" font-weight="700" letter-spacing="1.2">STATUS: BUILDING</text>

    <rect x="254" y="282" width="118" height="34" rx="17" fill="#FFFFFF" fill-opacity="0.82" stroke="#D8DEE4"/>
    <text x="273" y="304" fill="#57606A" font-size="12" font-weight="600">JAVA / SPRING</text>
    <rect x="386" y="282" width="112" height="34" rx="17" fill="#FFFFFF" fill-opacity="0.82" stroke="#D8DEE4"/>
    <text x="406" y="304" fill="#57606A" font-size="12" font-weight="600">ANDROID / AI</text>

    <g opacity="0.9">
      <text x="830" y="307" fill="#8C959F" font-size="12" letter-spacing="1.6">SIGNAL</text>
      <rect x="888" y="297" width="12" height="10" rx="2" fill="#93C5FD"/>
      <rect x="905" y="291" width="12" height="16" rx="2" fill="#60A5FA"/>
      <rect x="922" y="284" width="12" height="23" rx="2" fill="#3B82F6"/>
      <rect x="939" y="276" width="12" height="31" rx="2" fill="#22C1C3"><animate attributeName="height" values="31;18;31" dur="2.4s" repeatCount="indefinite"/><animate attributeName="y" values="276;289;276" dur="2.4s" repeatCount="indefinite"/></rect>
    </g>
  </g>
</svg>